<svg width="25" height="25" viewBox="0 0 25 25" fill="none" xmlns="http://www.w3.org/2000/svg">
<g clip-path="url(#clip0_57_11)">
<path d="M12.5038 25.0075C19.4094 25.0075 25.0075 19.4094 25.0075 12.5038C25.0075 5.59812 19.4094 0 12.5038 0C5.59812 0 0 5.59812 0 12.5038C0 19.4094 5.59812 25.0075 12.5038 25.0075Z" fill="white"/>
<path fill-rule="evenodd" clip-rule="evenodd" d="M12.2112 4.56045C11.2961 4.68047 10.6811 4.87548 9.98349 5.41554C9.67596 5.65556 9.46594 5.87308 9.22591 6.18812C9.00839 6.46564 8.80587 6.84068 8.67086 7.17821C8.1308 8.58836 8.42333 10.006 9.27842 11.1836C9.65345 11.6937 10.456 12.2862 11.0486 12.4887C11.6412 12.6913 12.1212 12.7888 12.8113 12.7513C15.7066 12.5713 17.5217 9.42094 16.1566 6.75817C16.0291 6.51065 15.9016 6.33813 15.7516 6.13561C14.994 5.10051 13.4563 4.39544 12.2112 4.56045ZM12.2262 6.9832C11.2661 7.17821 10.6886 8.0183 10.8311 8.92589C10.9661 9.75847 11.7762 10.516 12.8038 10.336C14.2964 10.0735 14.6865 8.17581 13.5613 7.32073C13.2463 7.08071 12.7363 6.87818 12.2262 6.9832Z" fill="#222222"/>
<path fill-rule="evenodd" clip-rule="evenodd" d="M10.411 19.9445C10.591 19.7645 12.4062 17.9418 12.5112 17.8743C12.6237 17.9418 12.7813 18.1218 12.8863 18.2268L14.694 20.042C14.9415 20.297 15.234 20.4771 15.7666 20.4546C16.1716 20.3495 16.4716 20.192 16.6592 19.8395C16.7192 19.7345 16.7717 19.607 16.7942 19.472C16.9217 18.7744 16.4641 18.4068 16.1866 18.1218C16.0441 17.9793 14.2589 16.2316 14.1914 16.1191C14.9865 15.9241 15.6465 15.6466 16.2841 15.2865C16.6291 15.099 16.8842 14.9415 17.0192 14.5515C17.3267 13.7039 16.6742 12.9013 15.8641 12.9238C15.3915 12.9388 15.1815 13.1788 14.8365 13.3438C13.2613 14.0714 11.6637 14.0789 10.111 13.2988C9.78846 13.1338 9.50344 12.8788 9.03839 12.9088C8.1458 12.9538 7.68825 13.8839 8.00328 14.604C8.1683 14.9715 8.41583 15.1065 8.76086 15.3015C9.37592 15.6616 10.0735 15.9316 10.8386 16.1191C10.7711 16.2241 8.95588 18.0093 8.81337 18.1518C8.52084 18.4369 8.07829 18.7969 8.22081 19.517C8.43833 20.6421 9.61595 20.7471 10.411 19.9445Z" fill="#222222"/>
</g>
<defs>
<clipPath id="clip0_57_11">
<rect width="25" height="25" fill="white"/>
</clipPath>
</defs>
</svg>
