<svg width="25" height="25" viewBox="0 0 25 25" fill="none" xmlns="http://www.w3.org/2000/svg">
<g clip-path="url(#clip0_57_4)">
<path d="M13.0524 0.0210938C14.4172 0 15.7711 0.0109375 17.125 0C17.2086 1.59375 17.7813 3.21875 18.9477 4.34375C20.1141 5.5 21.7602 6.03125 23.3641 6.20859V10.4062C21.8641 10.3539 20.3539 10.0414 18.9891 9.39609C18.3953 9.125 17.843 8.78125 17.3016 8.42734C17.2914 11.4687 17.3117 14.5109 17.2805 17.5422C17.1969 19.0008 16.718 20.4484 15.8742 21.6461C14.5094 23.6461 12.1453 24.9484 9.71799 24.9898C8.22814 25.0734 6.73908 24.6672 5.46799 23.9172C3.36408 22.6773 1.88439 20.407 1.66564 17.9695C1.64455 17.4484 1.63439 16.9281 1.65549 16.4172C1.84299 14.4383 2.82189 12.5422 4.34299 11.2508C6.07189 9.75078 8.48908 9.03203 10.7492 9.45937C10.7703 11.0008 10.7078 12.543 10.7078 14.0844C9.67658 13.7508 8.46799 13.8445 7.56174 14.4695C6.90549 14.8969 6.40549 15.5531 6.14533 16.2922C5.92658 16.8234 5.98908 17.407 5.99924 17.9695C6.24924 19.6781 7.89533 21.1156 9.64533 20.9594C10.8117 20.9492 11.9266 20.2719 12.5305 19.282C12.7281 18.9383 12.9469 18.5844 12.9578 18.1781C13.0617 16.3133 13.0203 14.4594 13.0305 12.5945C13.0406 8.39688 13.0203 4.20938 13.0516 0.021875L13.0524 0.0210938Z" fill="white"/>
</g>
<defs>
<clipPath id="clip0_57_4">
<rect width="25" height="25" fill="white"/>
</clipPath>
</defs>
</svg>
