<svg width="25" height="25" viewBox="0 0 25 25" fill="none" xmlns="http://www.w3.org/2000/svg">
<g clip-path="url(#clip0_57_6)">
<path d="M22.6562 0H2.34375C1.05469 0 0 1.05469 0 2.34375V22.6562C0 23.9453 1.05469 25 2.34375 25H22.6562C23.9453 25 25 23.9453 25 22.6562V2.34375C25 1.05469 23.9453 0 22.6562 0ZM20.2492 17.5L17.9641 17.5344C17.9641 17.5344 17.4711 17.632 16.8266 17.1875C15.9719 16.6016 15.1664 15.0734 14.5367 15.2734C13.9016 15.4734 13.9211 16.8453 13.9211 16.8453C13.9211 16.8453 13.9258 17.1383 13.7797 17.2945C13.6234 17.4656 13.3109 17.4992 13.3109 17.4992H12.2906C12.2906 17.4992 10.0344 17.6359 8.04766 15.5656C5.87969 13.3102 3.96563 8.83203 3.96563 8.83203C3.96563 8.83203 3.85313 8.53906 3.97578 8.39766C4.1125 8.23672 4.47891 8.22656 4.47891 8.22656L6.925 8.21172C6.925 8.21172 7.15469 8.25078 7.32031 8.37266C7.45703 8.47031 7.53047 8.66094 7.53047 8.66094C7.53047 8.66094 7.92578 9.66172 8.44844 10.5656C9.46875 12.3281 9.94766 12.7141 10.2937 12.5289C10.7969 12.2555 10.6453 10.0336 10.6453 10.0336C10.6453 10.0336 10.6547 9.22812 10.3914 8.87109C10.1867 8.59297 9.80078 8.50937 9.63437 8.48984C9.49766 8.47031 9.72266 8.15313 10.0156 8.00625C10.4555 7.79141 11.2312 7.77656 12.1492 7.78672C12.8625 7.79141 13.0719 7.84062 13.3508 7.90391C14.1953 8.10859 13.907 8.89531 13.907 10.7797C13.907 11.3852 13.8 12.2352 14.2344 12.5133C14.4203 12.6352 14.8789 12.5328 16.0266 10.5844C16.5687 9.66172 16.9789 8.57734 16.9789 8.57734C16.9789 8.57734 17.0672 8.38203 17.2039 8.29922C17.3453 8.21641 17.5359 8.24063 17.5359 8.24063L20.1094 8.22578C20.1094 8.22578 20.8812 8.13281 21.0078 8.48437C21.1398 8.85078 20.7195 9.70547 19.6703 11.1062C17.9469 13.4062 17.7516 13.1914 19.1867 14.5195C20.5539 15.7891 20.8375 16.4094 20.8859 16.4875C21.4422 17.425 20.2508 17.4984 20.2508 17.4984L20.2492 17.5Z" fill="white"/>
</g>
<defs>
<clipPath id="clip0_57_6">
<rect width="25" height="25" fill="white"/>
</clipPath>
</defs>
</svg>
