<svg width="32" height="32" viewBox="0 0 32 32" fill="none" xmlns="http://www.w3.org/2000/svg">
<g clip-path="url(#clip0_57_11)">
<path d="M16.0048 32.0096C24.844 32.0096 32.0096 24.844 32.0096 16.0048C32.0096 7.16559 24.844 0 16.0048 0C7.16559 0 0 7.16559 0 16.0048C0 24.844 7.16559 32.0096 16.0048 32.0096Z" fill="white"/>
<path fill-rule="evenodd" clip-rule="evenodd" d="M15.6304 5.83739C14.459 5.99101 13.6718 6.24063 12.7789 6.9319C12.3852 7.23913 12.1164 7.51756 11.8092 7.9208C11.5307 8.27604 11.2715 8.75609 11.0987 9.18813C10.4074 10.9931 10.7819 12.8077 11.8764 14.315C12.3564 14.9679 13.3837 15.7264 14.1422 15.9856C14.9007 16.2448 15.5151 16.3696 16.3984 16.3216C20.1044 16.0912 22.4278 12.0588 20.6805 8.65047C20.5172 8.33364 20.354 8.11282 20.162 7.8536C19.1923 6.52866 17.2241 5.62617 15.6304 5.83739ZM15.6496 8.9385C14.4206 9.18813 13.6814 10.2634 13.8638 11.4252C14.0366 12.4909 15.0735 13.4606 16.3888 13.2301C18.2994 12.8941 18.7987 10.4651 17.3585 9.37055C16.9553 9.06332 16.3024 8.80409 15.6496 8.9385Z" fill="black"/>
<path fill-rule="evenodd" clip-rule="evenodd" d="M13.3261 25.5289C13.5566 25.2985 15.88 22.9655 16.0144 22.8791C16.1584 22.9655 16.36 23.1959 16.4945 23.3303L18.8083 25.6538C19.1251 25.9802 19.4996 26.2106 20.1812 26.1818C20.6997 26.0474 21.0837 25.8458 21.3237 25.3945C21.4005 25.2601 21.4677 25.0969 21.4965 24.9241C21.6598 24.0312 21.0741 23.5608 20.7189 23.1959C20.5365 23.0135 18.2514 20.7765 18.165 20.6325C19.1827 20.3828 20.0276 20.0276 20.8437 19.5668C21.2853 19.3267 21.6118 19.1251 21.7846 18.6259C22.1782 17.5409 21.3429 16.5136 20.306 16.5424C19.7012 16.5617 19.4323 16.8689 18.9907 17.0801C16.9745 18.0114 14.9295 18.021 12.9421 17.0225C12.5293 16.8113 12.1644 16.4848 11.5692 16.5232C10.4266 16.5809 9.84099 17.7714 10.2442 18.6931C10.4554 19.1635 10.7723 19.3363 11.2139 19.586C12.0012 20.0468 12.8941 20.3924 13.8734 20.6325C13.787 20.7669 11.4635 23.0519 11.2811 23.2343C10.9067 23.5992 10.3402 24.06 10.5227 24.9817C10.8011 26.4218 12.3084 26.5563 13.3261 25.5289Z" fill="black"/>
</g>
<defs>
<clipPath id="clip0_57_11">
<rect width="32" height="32" fill="white"/>
</clipPath>
</defs>
</svg>
