<svg width="25" height="25" viewBox="0 0 25 25" fill="none" xmlns="http://www.w3.org/2000/svg">
<g clip-path="url(#clip0_57_2)">
<path d="M12.5 0C5.59531 0 0 5.59531 0 12.5C0 19.4047 5.59531 25 12.5 25C19.4047 25 25 19.4039 25 12.5C25 5.59609 19.4039 0 12.5 0ZM18.643 8.56953L16.5922 18.2328C16.4508 18.9211 16.0359 19.082 15.4594 18.7648L12.3344 16.4555L10.8352 17.9156C10.6594 18.0867 10.5227 18.2281 10.2102 18.2281C9.80469 18.2281 9.87344 18.0766 9.73672 17.6906L8.67188 14.1945L5.58125 13.2328C4.9125 13.0281 4.90781 12.5687 5.73281 12.2414L17.7734 7.59297C18.3203 7.34375 18.8523 7.725 18.643 8.56953Z" fill="white"/>
</g>
<defs>
<clipPath id="clip0_57_2">
<rect width="25" height="25" fill="white"/>
</clipPath>
</defs>
</svg>
